<?xml version="1.0" encoding="UTF-8" standalone="no"?>
<!-- Created with Inkscape (http://www.inkscape.org/) -->

<svg
   width="116.68953mm"
   height="111.63103mm"
   viewBox="0 0 116.68953 111.63103"
   version="1.1"
   id="svg1"
   inkscape:version="1.3.2 (091e20ef0f, 2023-11-25, custom)"
   sodipodi:docname="dihedral-angles.svg"
   inkscape:export-filename="dihedral-angles.png"
   inkscape:export-xdpi="96"
   inkscape:export-ydpi="96"
   xmlns:inkscape="http://www.inkscape.org/namespaces/inkscape"
   xmlns:sodipodi="http://sodipodi.sourceforge.net/DTD/sodipodi-0.dtd"
   xmlns="http://www.w3.org/2000/svg"
   xmlns:svg="http://www.w3.org/2000/svg">
  <sodipodi:namedview
     id="namedview1"
     pagecolor="#ffffff"
     bordercolor="#000000"
     borderopacity="0.25"
     inkscape:showpageshadow="2"
     inkscape:pageopacity="0.0"
     inkscape:pagecheckerboard="0"
     inkscape:deskcolor="#d1d1d1"
     inkscape:document-units="mm"
     inkscape:zoom="1.0733976"
     inkscape:cx="291.59744"
     inkscape:cy="244.08476"
     inkscape:window-width="1390"
     inkscape:window-height="778"
     inkscape:window-x="2980"
     inkscape:window-y="208"
     inkscape:window-maximized="0"
     inkscape:current-layer="g5133" />
  <defs
     id="defs1">
    <marker
       style="overflow:visible"
       id="ArrowWideHeavy"
       refX="0"
       refY="0"
       orient="auto-start-reverse"
       inkscape:stockid="Wide, heavy arrow"
       markerWidth="1"
       markerHeight="1"
       viewBox="0 0 1 1"
       inkscape:isstock="true"
       inkscape:collect="always"
       preserveAspectRatio="xMidYMid">
      <path
         style="fill:context-stroke;fill-rule:evenodd;stroke:none"
         d="m 1,0 -3,3 h -2 l 3,-3 -3,-3 h 2 z"
         id="path3" />
    </marker>
    <marker
       style="overflow:visible"
       id="marker12"
       refX="0"
       refY="0"
       orient="auto-start-reverse"
       inkscape:stockid="Wide, heavy arrow"
       markerWidth="1"
       markerHeight="1"
       viewBox="0 0 1 1"
       inkscape:isstock="true"
       inkscape:collect="always"
       preserveAspectRatio="xMidYMid">
      <path
         style="fill:context-stroke;fill-rule:evenodd;stroke:none"
         d="m 1,0 -3,3 h -2 l 3,-3 -3,-3 h 2 z"
         id="path12" />
    </marker>
  </defs>
  <g
     inkscape:label="Layer 1"
     inkscape:groupmode="layer"
     id="layer1"
     transform="translate(-13.876617,-14.671652)">
    <g
       id="g5133"
       transform="matrix(1.376105,0,0,1.376105,-2.4598952,-27.252044)">
      <rect
         style="fill:#ffccaa;stroke:#800000;stroke-width:1.78887;stroke-dasharray:1.78887, 1.78887;stroke-dashoffset:0;stroke-opacity:1"
         id="rect3"
         width="33.974033"
         height="37.005531"
         x="13.72542"
         y="31.359913" />
      <rect
         style="fill:#ffccaa;stroke:#800000;stroke-width:1.83699;stroke-dasharray:1.83699, 1.83699;stroke-dashoffset:0;stroke-opacity:1"
         id="rect4"
         width="37.314259"
         height="36.183994"
         x="49.083233"
         y="31.790539" />
      <g
         id="g315"
         style="stroke-width:2.1;stroke-dasharray:none"
         transform="matrix(0.53621409,0,0,0.53621409,0.28549767,-7.4519369)">
        <path
           style="fill:none;stroke:#ff0000;stroke-width:2.1;stroke-dasharray:none"
           d="m 41.712332,103.66387 24.997724,9.73979 22.984399,-9.70065 26.439015,9.15836"
           id="path2" />
        <path
           style="fill:#0000ff;stroke:#ff0000;stroke-width:2.1;stroke-dasharray:none"
           d="m 116.3667,113.45527 23.407,-9.25851"
           id="path10" />
        <path
           style="fill:#000000;stroke:#ff0000;stroke-width:2.1;stroke-dasharray:none"
           d="m 141.44834,102.95379 25.3239,6.16212"
           id="path30" />
      </g>
      <path
         style="fill:none;stroke:#000000;stroke-width:0.569996"
         d="M 22.678009,48.182607 19.558745,61.010065"
         id="path14" />
      <circle
         style="fill:#808080;stroke:#000000;stroke-width:0.569996"
         id="circle2"
         cx="22.730829"
         cy="48.288548"
         r="2.6432338" />
      <path
         style="fill:#ff8080;stroke:#000000;stroke-width:0.569996"
         d="M 36.135633,53.657515 29.390355,46.180904"
         id="path15" />
      <circle
         style="fill:#0000ff;stroke:#000000;stroke-width:0.569996"
         id="circle3"
         cx="36.127396"
         cy="53.163525"
         r="2.6432338" />
      <text
         xml:space="preserve"
         style="font-size:3.02663px;font-family:'Ubuntu Mono';-inkscape-font-specification:'Ubuntu Mono';text-align:center;text-anchor:middle;fill:#000000;stroke:none;stroke-width:0.569996"
         x="19.210665"
         y="46.473957"
         id="text12"><tspan
           sodipodi:role="line"
           id="tspan12"
           style="fill:#000000;stroke:none;stroke-width:0.569996"
           x="19.210665"
           y="46.473957">C</tspan></text>
      <text
         xml:space="preserve"
         style="font-size:3.02663px;font-family:'Ubuntu Mono';-inkscape-font-specification:'Ubuntu Mono';text-align:center;text-anchor:middle;fill:#000000;stroke:none;stroke-width:0.569996"
         x="63.387142"
         y="58.589176"
         id="text12-5"><tspan
           sodipodi:role="line"
           id="tspan12-3"
           style="fill:#000000;stroke:none;stroke-width:0.569996"
           x="63.387142"
           y="58.589176">C</tspan></text>
      <text
         xml:space="preserve"
         style="font-size:3.02663px;font-family:'Ubuntu Mono';-inkscape-font-specification:'Ubuntu Mono';text-align:center;text-anchor:middle;fill:#000000;stroke:none;stroke-width:0.569996"
         x="35.350437"
         y="58.886005"
         id="text13"><tspan
           sodipodi:role="line"
           id="tspan13"
           style="stroke-width:0.569996"
           x="35.350437"
           y="58.886005">N</tspan></text>
      <text
         xml:space="preserve"
         style="font-size:3.02663px;font-family:'Ubuntu Mono';-inkscape-font-specification:'Ubuntu Mono';text-align:center;text-anchor:middle;fill:#000000;stroke:none;stroke-width:0.569996"
         x="75.873825"
         y="43.601879"
         id="text13-9"><tspan
           sodipodi:role="line"
           id="tspan13-1"
           style="stroke-width:0.569996"
           x="75.873825"
           y="43.601879">N</tspan></text>
      <circle
         style="fill:#ff8080;stroke:#000000;stroke-width:0.569996"
         id="circle14"
         cx="19.766439"
         cy="60.673313"
         r="2.6432338" />
      <path
         style="fill:#000000;stroke:#000000;stroke-width:0.569996"
         d="m 76.15481,47.901111 2.06179,7.311904"
         id="path31" />
      <circle
         style="fill:#f2f2f2;stroke:#000000;stroke-width:0.399511"
         id="circle15"
         cx="29.583666"
         cy="46.277775"
         r="1.8526473" />
      <circle
         style="fill:#0000ff;stroke:#000000;stroke-width:0.569996"
         id="circle11"
         cx="75.884995"
         cy="47.497013"
         r="2.6432338" />
      <path
         style="fill:none;stroke:#000000;stroke-width:0.569996"
         d="m 53.823446,40.726126 -5.204034,7.726701 3.324077,11.342138"
         id="path16" />
      <circle
         style="fill:#f2f2f2;stroke:#000000;stroke-width:0.399511"
         id="circle19"
         cx="78.172455"
         cy="55.186443"
         r="1.8526473" />
      <circle
         style="fill:#ff8080;stroke:#000000;stroke-width:0.569996"
         id="circle20"
         cx="53.323383"
         cy="40.054295"
         r="2.6432338" />
      <text
         xml:space="preserve"
         style="font-size:4.16161px;font-family:'Ubuntu Mono';-inkscape-font-specification:'Ubuntu Mono';text-align:start;text-anchor:start;fill:#000000;stroke:none;stroke-width:0.569996"
         x="55.96426"
         y="42.704937"
         id="text20"><tspan
           sodipodi:role="line"
           id="tspan20"
           style="fill:#000000;stroke:none;stroke-width:0.569996"
           x="55.96426"
           y="42.704937">O</tspan></text>
      <g
         inkscape:label=""
         transform="matrix(0.53621409,0,0,0.53621409,52.998044,62.920335)"
         id="g24">
        <g
           fill="#000000"
           fill-opacity="1"
           id="g21"
           transform="matrix(0.352778,0,0,0.352778,-1.00625,-0.57538)">
          <g
             id="g20"
             transform="translate(1.993,13.756)">
            <path
               d="m 12.859375,-11.96875 c 0,-0.15625 -0.125,-0.15625 -0.15625,-0.15625 -0.03125,0 -0.09375,0 -0.234375,0.171875 L 11.28125,-10.5 c -0.609375,-1.03125 -1.546875,-1.625 -2.84375,-1.625 -3.71875,0 -7.578125,3.78125 -7.578125,7.8125 0,2.890625 2.015625,4.671875 4.53125,4.671875 1.375,0 2.578125,-0.578125 3.578125,-1.421875 1.5,-1.265625 1.953125,-2.9375 1.953125,-3.0625 0,-0.15625 -0.140625,-0.15625 -0.1875,-0.15625 -0.15625,0 -0.171875,0.09375 -0.21875,0.171875 -0.78125,2.6875 -3.109375,3.96875 -4.828125,3.96875 -1.828125,0 -3.421875,-1.171875 -3.421875,-3.609375 0,-0.5625 0.171875,-3.546875 2.125,-5.8125 0.953125,-1.09375 2.5625,-2.0625 4.203125,-2.0625 1.890625,0 2.734375,1.5625 2.734375,3.328125 0,0.4375 -0.04687,0.828125 -0.04687,0.890625 0,0.15625 0.171875,0.15625 0.21875,0.15625 0.1875,0 0.203125,-0.015625 0.28125,-0.328125 z m 0,0"
               id="path20" />
          </g>
        </g>
        <g
           fill="#000000"
           fill-opacity="1"
           id="g23"
           transform="matrix(0.352778,0,0,0.352778,-1.00625,-0.57538)">
          <g
             id="g22"
             transform="translate(14.053,16.337999)">
            <path
               d="m 6.265625,-6.203125 c 0,-0.828125 -0.59375,-1.5 -1.484375,-1.5 -0.625,0 -0.9375,0.171875 -1.3125,0.46875 C 2.875,-6.8125 2.265625,-5.75 2.0625,-4.921875 L 0.328125,2 C 0.3125,2.046875 0.375,2.109375 0.453125,2.109375 c 0.09375,0 0.125,-0.015625 0.140625,-0.046875 l 0.765625,-3.015625 c 0.203125,0.65625 0.6875,1.0625 1.46875,1.0625 0.796875,0 1.625,-0.375 2.109375,-0.859375 0.53125,-0.5 0.875,-1.203125 0.875,-2.015625 0,-0.78125 -0.40625,-1.34375 -0.796875,-1.625 0.640625,-0.359375 1.25,-1.03125 1.25,-1.8125 z M 4.3125,-4.390625 C 4.171875,-4.34375 4.046875,-4.3125 3.78125,-4.3125 c -0.15625,0 -0.375,0 -0.484375,-0.046875 0.03125,-0.109375 0.421875,-0.09375 0.546875,-0.09375 0.21875,0 0.328125,0 0.46875,0.0625 z m 1.34375,-2.0625 C 5.65625,-5.6875 5.25,-4.90625 4.671875,-4.5625 4.390625,-4.671875 4.171875,-4.703125 3.84375,-4.703125 3.609375,-4.703125 3,-4.71875 3,-4.359375 c -0.015625,0.3125 0.5625,0.28125 0.75,0.28125 0.40625,0 0.5625,-0.015625 0.890625,-0.140625 0.421875,0.390625 0.46875,0.734375 0.484375,1.234375 0.015625,0.625 -0.234375,1.453125 -0.546875,1.875 C 4.15625,-0.53125 3.421875,-0.125 2.796875,-0.125 1.96875,-0.125 1.5625,-0.765625 1.5625,-1.53125 c 0,-0.109375 0,-0.28125 0.046875,-0.484375 L 2.3125,-4.78125 c 0.234375,-0.9375 1.03125,-2.671875 2.328125,-2.671875 0.640625,0 1.015625,0.34375 1.015625,1 z m 0,0"
               id="path21" />
          </g>
        </g>
      </g>
      <circle
         style="fill:#808080;stroke:#000000;stroke-width:0.569996"
         id="circle24"
         cx="51.913776"
         cy="60.152912"
         r="2.6432338" />
      <text
         xml:space="preserve"
         style="font-size:4.16161px;font-family:'Ubuntu Mono';-inkscape-font-specification:'Ubuntu Mono';text-align:start;text-anchor:start;fill:#000000;stroke:none;stroke-width:0.569996"
         x="26.669828"
         y="43.955044"
         id="text25"><tspan
           sodipodi:role="line"
           id="tspan25"
           style="stroke-width:0.569996"
           x="26.669828"
           y="43.955044">H</tspan></text>
      <text
         xml:space="preserve"
         style="font-size:4.16161px;font-family:'Ubuntu Mono';-inkscape-font-specification:'Ubuntu Mono';text-align:start;text-anchor:start;fill:#000000;stroke:none;stroke-width:0.569996"
         x="79.611984"
         y="61.898502"
         id="text26"><tspan
           sodipodi:role="line"
           id="tspan26"
           style="stroke-width:0.569996"
           x="79.611984"
           y="61.898502">H</tspan></text>
      <circle
         style="fill:#00ff00;stroke:#000000;stroke-width:0.569996"
         id="circle26"
         cx="89.998322"
         cy="50.890179"
         r="2.6432338" />
      <g
         inkscape:label=""
         transform="matrix(0.53621409,0,0,0.53621409,90.58936,44.797665)"
         id="g30">
        <g
           fill="#000000"
           fill-opacity="1"
           id="g27"
           transform="matrix(0.352778,0,0,0.352778,-1.00625,-0.57538)">
          <g
             id="g26"
             transform="translate(1.993,13.756)">
            <path
               d="m 12.859375,-11.96875 c 0,-0.15625 -0.125,-0.15625 -0.15625,-0.15625 -0.03125,0 -0.09375,0 -0.234375,0.171875 L 11.28125,-10.5 c -0.609375,-1.03125 -1.546875,-1.625 -2.84375,-1.625 -3.71875,0 -7.578125,3.78125 -7.578125,7.8125 0,2.890625 2.015625,4.671875 4.53125,4.671875 1.375,0 2.578125,-0.578125 3.578125,-1.421875 1.5,-1.265625 1.953125,-2.9375 1.953125,-3.0625 0,-0.15625 -0.140625,-0.15625 -0.1875,-0.15625 -0.15625,0 -0.171875,0.09375 -0.21875,0.171875 -0.78125,2.6875 -3.109375,3.96875 -4.828125,3.96875 -1.828125,0 -3.421875,-1.171875 -3.421875,-3.609375 0,-0.5625 0.171875,-3.546875 2.125,-5.8125 0.953125,-1.09375 2.5625,-2.0625 4.203125,-2.0625 1.890625,0 2.734375,1.5625 2.734375,3.328125 0,0.4375 -0.04687,0.828125 -0.04687,0.890625 0,0.15625 0.171875,0.15625 0.21875,0.15625 0.1875,0 0.203125,-0.015625 0.28125,-0.328125 z m 0,0"
               id="path26" />
          </g>
        </g>
        <g
           fill="#000000"
           fill-opacity="1"
           id="g29"
           transform="matrix(0.352778,0,0,0.352778,-1.00625,-0.57538)">
          <g
             id="g28"
             transform="translate(14.053,16.337999)">
            <path
               d="m 5.203125,-2.578125 c 0,-1.703125 -1.015625,-2.25 -1.828125,-2.25 -1.484375,0 -2.921875,1.5625 -2.921875,3.109375 0,1.015625 0.640625,1.84375 1.765625,1.84375 0.6875,0 1.46875,-0.25 2.296875,-0.921875 C 4.65625,-0.21875 5.015625,0.125 5.5,0.125 c 0.578125,0 0.921875,-0.609375 0.921875,-0.78125 0,-0.078125 -0.0625,-0.109375 -0.125,-0.109375 -0.078125,0 -0.109375,0.03125 -0.140625,0.109375 C 5.953125,-0.125 5.5625,-0.125 5.546875,-0.125 c -0.34375,0 -0.34375,-0.84375 -0.34375,-1.109375 0,-0.234375 0,-0.25 0.109375,-0.375 1.03125,-1.296875 1.25,-2.5625 1.25,-2.5625 0,-0.03125 -0.015625,-0.109375 -0.125,-0.109375 -0.109375,0 -0.109375,0.03125 -0.171875,0.21875 -0.1875,0.6875 -0.546875,1.515625 -1.0625,2.171875 z m -0.734375,1.5 C 3.515625,-0.234375 2.671875,-0.125 2.234375,-0.125 1.578125,-0.125 1.25,-0.609375 1.25,-1.3125 c 0,-0.53125 0.28125,-1.703125 0.640625,-2.265625 0.515625,-0.796875 1.09375,-1 1.484375,-1 1.078125,0 1.078125,1.421875 1.078125,2.28125 0,0.40625 0,1.03125 0.015625,1.21875 z m 0,0"
               id="path27" />
          </g>
        </g>
      </g>
      <path
         style="fill:#000000;stroke:#000000;stroke-width:0.569996;stroke-dasharray:none"
         d="m 63.168118,53.621345 2.424664,-8.814583"
         id="path32" />
      <circle
         style="fill:#ff8080;stroke:#000000;stroke-width:0.386941"
         id="circle31"
         cx="65.659157"
         cy="44.390079"
         r="1.7943579" />
      <circle
         style="fill:#808080;stroke:#000000;stroke-width:0.569996"
         id="circle4"
         cx="62.672352"
         cy="53.404972"
         r="2.6432338" />
      <text
         xml:space="preserve"
         style="font-size:4.16161px;font-family:'Ubuntu Mono';-inkscape-font-specification:'Ubuntu Mono';text-align:start;text-anchor:start;fill:#000000;stroke:none;stroke-width:0.569996"
         x="67.686127"
         y="44.671185"
         id="text31"><tspan
           sodipodi:role="line"
           id="tspan31"
           style="fill:#000000;stroke:none;stroke-width:0.569996"
           x="67.686127"
           y="44.671185">O</tspan></text>
      <circle
         style="fill:#00ff00;stroke:#000000;stroke-width:0.569996"
         id="circle5"
         cx="48.33012"
         cy="48.617672"
         r="2.6432338" />
      <text
         xml:space="preserve"
         style="font-size:4.16161px;font-family:'Ubuntu Mono';-inkscape-font-specification:'Ubuntu Mono';text-align:center;text-anchor:middle;fill:#ff0000;stroke:none;stroke-width:1.12605;stroke-dasharray:none"
         x="54.28669"
         y="87.919434"
         id="text316"><tspan
           sodipodi:role="line"
           id="tspan316"
           style="text-align:center;text-anchor:middle;fill:#ff0000;stroke:none;stroke-width:1.12605"
           x="54.28669"
           y="87.919434">build a polypetide chain by stitching</tspan><tspan
           sodipodi:role="line"
           style="text-align:center;text-anchor:middle;fill:#ff0000;stroke:none;stroke-width:1.12605"
           x="54.28669"
           y="93.121445"
           id="tspan6">amino acids together with dihedral angles</tspan></text>
      <g
         id="g71"
         transform="matrix(0.54716477,0,0,0.54716477,-6.3819513,43.893777)">
        <path
           style="fill:none;stroke:#000000;stroke-width:1.063"
           d="m 41.712332,103.66387 24.997724,9.73979 22.984399,-9.70065 26.439015,9.15836"
           id="path34" />
        <circle
           style="fill:#808080;stroke:#000000;stroke-width:1.063"
           id="circle34"
           cx="41.858902"
           cy="103.95193"
           r="4.9294372" />
        <path
           style="fill:#0000ff;stroke:#000000;stroke-width:1.063"
           d="m 116.3667,113.45527 23.407,-9.25851"
           id="path36" />
        <circle
           style="fill:#0000ff;stroke:#000000;stroke-width:1.063"
           id="circle36"
           cx="66.842506"
           cy="113.0434"
           r="4.9294372" />
        <path
           style="fill:none;stroke:#ff00ff;stroke-width:0.830725;marker-end:url(#ArrowWideHeavy)"
           d="m 69.879586,104.571 c 0,0 2.722551,-5.527011 4.617252,-6.165828 2.134171,-0.719563 4.622347,0.594461 6.281739,3.073638 1.418974,2.11999 2.361335,8.92496 2.361335,8.92496"
           id="path37"
           sodipodi:nodetypes="caac" />
        <g
           inkscape:label=""
           transform="translate(91.949376,121.89803)"
           id="g40">
          <g
             fill="#000000"
             fill-opacity="1"
             id="g39"
             transform="matrix(0.352778,0,0,0.352778,-6.0823392,1.1239501)">
            <g
               id="g38"
               transform="translate(1.993,13.948)">
              <path
                 d="m -26.305068,-100.734 c 0,-0.15625 -0.125,-0.15625 -0.171875,-0.15625 -0.15625,0 -0.171875,0.0312 -0.25,0.32812 l -0.921875,3.703127 c -0.04687,0.21875 -0.07813,0.25 -0.09375,0.265625 -0.01563,0.03125 -0.125,0.04687 -0.171875,0.04687 -2.8125,0.234375 -4.984375,2.5625 -4.984375,4.71875 0,1.859375 1.421875,3 3.21875,3.09375 -0.140625,0.53125 -0.265625,1.09375 -0.390625,1.625 -0.25,0.90625 -0.390625,1.484375 -0.390625,1.546875 0,0.03125 0,0.140625 0.171875,0.140625 0.0625,0 0.125,0 0.15625,-0.07813 0.03125,-0.03125 0.140625,-0.4375 0.203125,-0.671875 l 0.640625,-2.5625 c 2.953125,-0.15625 5.1875,-2.5625 5.1875,-4.734375 0,-1.734375 -1.3125,-2.96875 -3.21875,-3.09375 z m -1.125,4.515622 c 1.140625,0.0625 2.28125,0.703125 2.28125,2.390625 0,1.953125 -1.359375,4.53125 -4.046875,4.734375 z m -2.171875,7.140625 c -0.84375,-0.04687 -2.25,-0.5 -2.25,-2.390625 0,-2.171875 1.5625,-4.578125 4.046875,-4.734375 z m 0,0"
                 id="path38" />
            </g>
          </g>
        </g>
        <path
           style="fill:#000000;stroke:#000000;stroke-width:1.063"
           d="m 141.44834,102.95379 25.3239,6.16212"
           id="path40" />
        <g
           inkscape:label=""
           transform="translate(104.72626,92.743326)"
           id="g43">
          <g
             fill="#000000"
             fill-opacity="1"
             id="g42"
             transform="matrix(0.352778,0,0,0.352778,-0.868451,-0.703748)">
            <g
               id="g41"
               transform="translate(1.993,13.948)">
              <path
                 d="m 8.09375,-11.53125 c 0,-0.01563 0.0625,-0.25 0.0625,-0.265625 0,-0.15625 -0.125,-0.15625 -0.1875,-0.15625 -0.15625,0 -0.171875,0.09375 -0.234375,0.34375 l -2.84375,11.40625 c -1.421875,-0.171875 -1.96875,-0.90625 -1.96875,-1.9375 0,-0.375 0,-0.765625 0.8125,-2.90625 0.21875,-0.625 0.3125,-0.84375 0.3125,-1.15625 C 4.046875,-6.96875 3.5,-7.59375 2.6875,-7.59375 c -1.578125,0 -2.21875,2.5 -2.21875,2.640625 0,0.0625 0.0625,0.15625 0.1875,0.15625 0.15625,0 0.171875,-0.078125 0.234375,-0.3125 C 1.3125,-6.609375 2,-7.25 2.640625,-7.25 c 0.15625,0 0.4375,0.015625 0.4375,0.5625 0,0.078125 0,0.453125 -0.28125,1.21875 -0.9375,2.4375 -0.9375,2.8125 -0.9375,3.21875 0,1.640625 1.375,2.28125 2.921875,2.40625 -0.125,0.53125 -0.25,1.078125 -0.390625,1.625 C 4.109375,2.8125 4,3.28125 4,3.359375 c 0,0.15625 0.125,0.15625 0.1875,0.15625 0.03125,0 0.09375,0 0.140625,-0.078125 0.0625,-0.0625 0.765625,-2.953125 0.84375,-3.265625 0.625,0 1.984375,0 3.546875,-1.59375 0.5625,-0.625 1.078125,-1.421875 1.375,-2.15625 0.171875,-0.453125 0.578125,-1.984375 0.578125,-2.859375 0,-1.03125 -0.515625,-1.15625 -0.6875,-1.15625 -0.40625,0 -0.796875,0.40625 -0.796875,0.765625 0,0.203125 0.125,0.3125 0.203125,0.390625 C 9.546875,-6.28125 10,-5.8125 10,-4.921875 c 0,0.609375 -0.34375,1.890625 -1.4375,3.125 -1.453125,1.625 -2.78125,1.625 -3.296875,1.625 z m 0,0"
                 id="path41" />
            </g>
          </g>
        </g>
        <path
           style="fill:none;stroke:#ff0000;stroke-width:1.063;marker-end:url(#marker12)"
           d="m 115.61959,104.25376 c 0,0 -2.82635,-3.9075 -4.95985,-4.714305 -1.69976,-0.642785 -3.78388,-0.528731 -5.44801,0.201359 -1.54218,0.676586 -2.69772,2.139786 -3.55624,3.588596 -1.32063,2.22865 -2.214919,7.44933 -2.214919,7.44933"
           id="path43"
           sodipodi:nodetypes="caaac" />
        <text
           xml:space="preserve"
           style="font-size:5.64444px;font-family:'Ubuntu Mono';-inkscape-font-specification:'Ubuntu Mono';text-align:center;text-anchor:middle;fill:#000000;stroke:none;stroke-width:1.063"
           x="35.294048"
           y="100.56783"
           id="text43"><tspan
             sodipodi:role="line"
             id="tspan43"
             style="fill:#000000;stroke:none;stroke-width:1.063"
             x="35.294048"
             y="100.56783">C</tspan></text>
        <text
           xml:space="preserve"
           style="font-size:5.64444px;font-family:'Ubuntu Mono';-inkscape-font-specification:'Ubuntu Mono';text-align:center;text-anchor:middle;fill:#000000;stroke:none;stroke-width:1.063"
           x="117.67994"
           y="123.16183"
           id="text44"><tspan
             sodipodi:role="line"
             id="tspan44"
             style="fill:#000000;stroke:none;stroke-width:1.063"
             x="117.67994"
             y="123.16183">C</tspan></text>
        <text
           xml:space="preserve"
           style="font-size:5.64444px;font-family:'Ubuntu Mono';-inkscape-font-specification:'Ubuntu Mono';text-align:center;text-anchor:middle;fill:#000000;stroke:none;stroke-width:1.063"
           x="65.393539"
           y="123.7154"
           id="text45"><tspan
             sodipodi:role="line"
             id="tspan45"
             style="stroke-width:1.063"
             x="65.393539"
             y="123.7154">N</tspan></text>
        <text
           xml:space="preserve"
           style="font-size:5.64444px;font-family:'Ubuntu Mono';-inkscape-font-specification:'Ubuntu Mono';text-align:center;text-anchor:middle;fill:#000000;stroke:none;stroke-width:1.063"
           x="140.96669"
           y="95.211624"
           id="text46"><tspan
             sodipodi:role="line"
             id="tspan46"
             style="stroke-width:1.063"
             x="140.96669"
             y="95.211624">N</tspan></text>
        <g
           inkscape:label=""
           transform="translate(85.186186,93.159252)"
           id="g50">
          <g
             fill="#000000"
             fill-opacity="1"
             id="g47"
             transform="matrix(0.352778,0,0,0.352778,-1.00625,-0.57538)">
            <g
               id="g46"
               transform="translate(1.993,13.756)">
              <path
                 d="m 12.859375,-11.96875 c 0,-0.15625 -0.125,-0.15625 -0.15625,-0.15625 -0.03125,0 -0.09375,0 -0.234375,0.171875 L 11.28125,-10.5 c -0.609375,-1.03125 -1.546875,-1.625 -2.84375,-1.625 -3.71875,0 -7.578125,3.78125 -7.578125,7.8125 0,2.890625 2.015625,4.671875 4.53125,4.671875 1.375,0 2.578125,-0.578125 3.578125,-1.421875 1.5,-1.265625 1.953125,-2.9375 1.953125,-3.0625 0,-0.15625 -0.140625,-0.15625 -0.1875,-0.15625 -0.15625,0 -0.171875,0.09375 -0.21875,0.171875 -0.78125,2.6875 -3.109375,3.96875 -4.828125,3.96875 -1.828125,0 -3.421875,-1.171875 -3.421875,-3.609375 0,-0.5625 0.171875,-3.546875 2.125,-5.8125 0.953125,-1.09375 2.5625,-2.0625 4.203125,-2.0625 1.890625,0 2.734375,1.5625 2.734375,3.328125 0,0.4375 -0.04687,0.828125 -0.04687,0.890625 0,0.15625 0.171875,0.15625 0.21875,0.15625 0.1875,0 0.203125,-0.015625 0.28125,-0.328125 z m 0,0"
                 id="path46" />
            </g>
          </g>
          <g
             fill="#000000"
             fill-opacity="1"
             id="g49"
             transform="matrix(0.352778,0,0,0.352778,-1.00625,-0.57538)">
            <g
               id="g48"
               transform="translate(14.053,16.337999)">
              <path
                 d="m 5.203125,-2.578125 c 0,-1.703125 -1.015625,-2.25 -1.828125,-2.25 -1.484375,0 -2.921875,1.5625 -2.921875,3.109375 0,1.015625 0.640625,1.84375 1.765625,1.84375 0.6875,0 1.46875,-0.25 2.296875,-0.921875 C 4.65625,-0.21875 5.015625,0.125 5.5,0.125 c 0.578125,0 0.921875,-0.609375 0.921875,-0.78125 0,-0.078125 -0.0625,-0.109375 -0.125,-0.109375 -0.078125,0 -0.109375,0.03125 -0.140625,0.109375 C 5.953125,-0.125 5.5625,-0.125 5.546875,-0.125 c -0.34375,0 -0.34375,-0.84375 -0.34375,-1.109375 0,-0.234375 0,-0.25 0.109375,-0.375 1.03125,-1.296875 1.25,-2.5625 1.25,-2.5625 0,-0.03125 -0.015625,-0.109375 -0.125,-0.109375 -0.109375,0 -0.109375,0.03125 -0.171875,0.21875 -0.1875,0.6875 -0.546875,1.515625 -1.0625,2.171875 z m -0.734375,1.5 C 3.515625,-0.234375 2.671875,-0.125 2.234375,-0.125 1.578125,-0.125 1.25,-0.609375 1.25,-1.3125 c 0,-0.53125 0.28125,-1.703125 0.640625,-2.265625 0.515625,-0.796875 1.09375,-1 1.484375,-1 1.078125,0 1.078125,1.421875 1.078125,2.28125 0,0.40625 0,1.03125 0.015625,1.21875 z m 0,0"
                 id="path47" />
            </g>
          </g>
        </g>
        <circle
           style="fill:#0000ff;stroke:#000000;stroke-width:1.063"
           id="circle52"
           cx="140.98755"
           cy="102.47577"
           r="4.9294372" />
        <circle
           style="fill:#00ff00;stroke:#000000;stroke-width:1.063"
           id="circle59"
           cx="167.30783"
           cy="108.80378"
           r="4.9294372" />
        <g
           inkscape:label=""
           transform="translate(168.41008,97.441681)"
           id="g63">
          <g
             fill="#000000"
             fill-opacity="1"
             id="g60"
             transform="matrix(0.352778,0,0,0.352778,-1.00625,-0.57538)">
            <g
               id="g59"
               transform="translate(1.993,13.756)">
              <path
                 d="m 12.859375,-11.96875 c 0,-0.15625 -0.125,-0.15625 -0.15625,-0.15625 -0.03125,0 -0.09375,0 -0.234375,0.171875 L 11.28125,-10.5 c -0.609375,-1.03125 -1.546875,-1.625 -2.84375,-1.625 -3.71875,0 -7.578125,3.78125 -7.578125,7.8125 0,2.890625 2.015625,4.671875 4.53125,4.671875 1.375,0 2.578125,-0.578125 3.578125,-1.421875 1.5,-1.265625 1.953125,-2.9375 1.953125,-3.0625 0,-0.15625 -0.140625,-0.15625 -0.1875,-0.15625 -0.15625,0 -0.171875,0.09375 -0.21875,0.171875 -0.78125,2.6875 -3.109375,3.96875 -4.828125,3.96875 -1.828125,0 -3.421875,-1.171875 -3.421875,-3.609375 0,-0.5625 0.171875,-3.546875 2.125,-5.8125 0.953125,-1.09375 2.5625,-2.0625 4.203125,-2.0625 1.890625,0 2.734375,1.5625 2.734375,3.328125 0,0.4375 -0.04687,0.828125 -0.04687,0.890625 0,0.15625 0.171875,0.15625 0.21875,0.15625 0.1875,0 0.203125,-0.015625 0.28125,-0.328125 z m 0,0"
                 id="path59" />
            </g>
          </g>
          <g
             fill="#000000"
             fill-opacity="1"
             id="g62"
             transform="matrix(0.352778,0,0,0.352778,-1.00625,-0.57538)">
            <g
               id="g61"
               transform="translate(14.053,16.337999)">
              <path
                 d="m 5.203125,-2.578125 c 0,-1.703125 -1.015625,-2.25 -1.828125,-2.25 -1.484375,0 -2.921875,1.5625 -2.921875,3.109375 0,1.015625 0.640625,1.84375 1.765625,1.84375 0.6875,0 1.46875,-0.25 2.296875,-0.921875 C 4.65625,-0.21875 5.015625,0.125 5.5,0.125 c 0.578125,0 0.921875,-0.609375 0.921875,-0.78125 0,-0.078125 -0.0625,-0.109375 -0.125,-0.109375 -0.078125,0 -0.109375,0.03125 -0.140625,0.109375 C 5.953125,-0.125 5.5625,-0.125 5.546875,-0.125 c -0.34375,0 -0.34375,-0.84375 -0.34375,-1.109375 0,-0.234375 0,-0.25 0.109375,-0.375 1.03125,-1.296875 1.25,-2.5625 1.25,-2.5625 0,-0.03125 -0.015625,-0.109375 -0.125,-0.109375 -0.109375,0 -0.109375,0.03125 -0.171875,0.21875 -0.1875,0.6875 -0.546875,1.515625 -1.0625,2.171875 z m -0.734375,1.5 C 3.515625,-0.234375 2.671875,-0.125 2.234375,-0.125 1.578125,-0.125 1.25,-0.609375 1.25,-1.3125 c 0,-0.53125 0.28125,-1.703125 0.640625,-2.265625 0.515625,-0.796875 1.09375,-1 1.484375,-1 1.078125,0 1.078125,1.421875 1.078125,2.28125 0,0.40625 0,1.03125 0.015625,1.21875 z m 0,0"
                 id="path60" />
            </g>
          </g>
        </g>
        <circle
           style="fill:#808080;stroke:#000000;stroke-width:1.063"
           id="circle64"
           cx="116.34691"
           cy="113.49368"
           r="4.9294372" />
        <circle
           style="fill:#00ff00;stroke:#000000;stroke-width:1.063"
           id="circle65"
           cx="89.599701"
           cy="104.56571"
           r="4.9294372" />
      </g>
      <text
         xml:space="preserve"
         style="font-style:normal;font-variant:normal;font-weight:bold;font-stretch:normal;font-size:3.79884px;font-family:'Ubuntu Mono';-inkscape-font-specification:'Ubuntu Mono Bold';fill:#000000;stroke:none;stroke-width:1.05328;stroke-dasharray:1.05328, 1.05328;stroke-dashoffset:0;stroke-opacity:1"
         x="20.557703"
         y="37.210972"
         id="text4"><tspan
           sodipodi:role="line"
           id="tspan4"
           style="font-style:normal;font-variant:normal;font-weight:bold;font-stretch:normal;font-size:3.79884px;font-family:'Ubuntu Mono';-inkscape-font-specification:'Ubuntu Mono Bold';fill:#000000;stroke:none;stroke-width:1.05328"
           x="20.557703"
           y="37.210972">Amino Acid</tspan></text>
      <text
         xml:space="preserve"
         style="font-style:normal;font-variant:normal;font-weight:bold;font-stretch:normal;font-size:3.79884px;font-family:'Ubuntu Mono';-inkscape-font-specification:'Ubuntu Mono Bold';fill:#000000;stroke:none;stroke-width:1.05328;stroke-dasharray:1.05328, 1.05328;stroke-dashoffset:0;stroke-opacity:1"
         x="58.939281"
         y="36.864544"
         id="text5"><tspan
           sodipodi:role="line"
           id="tspan5"
           style="font-style:normal;font-variant:normal;font-weight:bold;font-stretch:normal;font-size:3.79884px;font-family:'Ubuntu Mono';-inkscape-font-specification:'Ubuntu Mono Bold';fill:#000000;stroke:none;stroke-width:1.05328"
           x="58.939281"
           y="36.864544">Amino Acid</tspan></text>
      <path
         style="fill:#000000;stroke:#000000;stroke-width:0.868777;stroke-dasharray:none;stroke-dashoffset:0;stroke-opacity:1;marker-end:url(#marker12)"
         d="M 47.6371,70.993758 V 81.236195"
         id="path6" />
    </g>
  </g>
</svg>
